<svg xmlns="http://www.w3.org/2000/svg" width="30" height="30" fill="none"><path fill="#000" fill-rule="evenodd" d="M22.162 2.781a1 1 0 0 1 1.414 0l4 4a1 1 0 0 1 0 1.414l-7.885 7.886a2 2 0 0 1-.52.374l-7.855 3.928a1 1 0 0 1-1.341-1.342l3.927-7.855q.146-.29.375-.52zm.707 2.121-7.178 7.179-2.077 4.153.51.509 4.153-2.077 7.178-7.178zm-5-.414-2 2h-8.2c-.856 0-1.439.001-1.889.038-.438.036-.662.1-.819.18a2 2 0 0 0-.874.874c-.08.157-.144.38-.18.82-.037.45-.038 1.032-.038 1.888v12.4c0 .857 0 1.44.038 1.89.036.438.1.662.18.818a2 2 0 0 0 .874.874c.157.08.38.145.82.18.45.038 1.032.038 1.888.038h12.4c.857 0 1.439 0 1.89-.037.438-.036.662-.1.818-.18a2 2 0 0 0 .874-.875c.08-.156.145-.38.18-.819.037-.45.038-1.032.038-1.889v-8.2l2-2V22.73c0 .805 0 1.469-.044 2.01-.046.562-.145 1.079-.392 1.564a4 4 0 0 1-1.748 1.748c-.485.248-1.002.346-1.564.392-.541.044-1.206.044-2.01.044H7.627c-.805 0-1.47 0-2.01-.044-.563-.046-1.08-.144-1.565-.392a4 4 0 0 1-1.748-1.748c-.247-.485-.346-1.002-.392-1.564-.044-.541-.044-1.205-.044-2.01V10.247c0-.805 0-1.47.044-2.01.046-.563.145-1.08.392-1.565a4 4 0 0 1 1.748-1.748c.486-.247 1.002-.346 1.564-.392.542-.044 1.206-.044 2.01-.044H17.87" clip-rule="evenodd" style="fill:#000;fill-opacity:1"/></svg>